<svg width="106" height="106" viewBox="0 0 106 106" fill="none" xmlns="http://www.w3.org/2000/svg">
<g filter="url(#filter0_d_103_2)">
<rect x="4" width="98" height="98" fill="url(#paint0_linear_103_2)"/>
<path fill-rule="evenodd" clip-rule="evenodd" d="M82.021 74.619H91.979C91.9929 74.4624 92 74.3036 92 74.1429C92 71.2643 89.7235 69 87 69C84.2765 69 82 71.2643 82 74.1429C82 74.3036 82.0071 74.4624 82.021 74.619ZM80.0153 74.619C80.0052 74.4617 80 74.3029 80 74.1429C80 70.198 83.134 67 87 67C90.866 67 94 70.198 94 74.1429C94 74.3029 93.9948 74.4617 93.9847 74.619H95V87H79V74.619H80.0153Z" fill="#BA8C1D"/>
<path d="M7.10547 83.4961H10.6094V87H7.10547V83.4961ZM25.5039 84.6914C25.5039 85.0117 25.4414 85.3125 25.3164 85.5938C25.1992 85.875 25.0352 86.1211 24.8242 86.332C24.6211 86.5352 24.3789 86.6992 24.0977 86.8242C23.8164 86.9414 23.5156 87 23.1953 87H16.7617V92.0391H14.4648V74.5195H16.7617V76.6289C16.7852 76.332 16.8633 76.0586 16.9961 75.8086C17.1289 75.5508 17.2969 75.3281 17.5 75.1406C17.7031 74.9453 17.9375 74.793 18.2031 74.6836C18.4766 74.5742 18.7656 74.5195 19.0703 74.5195H23.1953C23.5156 74.5195 23.8164 74.582 24.0977 74.707C24.3789 74.8242 24.6211 74.9883 24.8242 75.1992C25.0352 75.4023 25.1992 75.6445 25.3164 75.9258C25.4414 76.207 25.5039 76.5078 25.5039 76.8281V84.6914ZM23.1953 84.6914V76.8281H16.7617V84.6914H23.1953ZM30.1914 92.0391L32.8047 85.875L27.9062 74.5195H30.332L33.9766 83.1094L37.6211 74.5195H40.0469L32.4883 92.0391H30.1914ZM53.4883 84.6914C53.4883 85.0117 53.4258 85.3125 53.3008 85.5938C53.1836 85.875 53.0195 86.1211 52.8086 86.332C52.6055 86.5352 52.3633 86.6992 52.082 86.8242C51.8008 86.9414 51.5 87 51.1797 87H44.7461V92.0391H42.4492V74.5195H44.7461V76.6289C44.7695 76.332 44.8477 76.0586 44.9805 75.8086C45.1133 75.5508 45.2812 75.3281 45.4844 75.1406C45.6875 74.9453 45.9219 74.793 46.1875 74.6836C46.4609 74.5742 46.75 74.5195 47.0547 74.5195H51.1797C51.5 74.5195 51.8008 74.582 52.082 74.707C52.3633 74.8242 52.6055 74.9883 52.8086 75.1992C53.0195 75.4023 53.1836 75.6445 53.3008 75.9258C53.4258 76.207 53.4883 76.5078 53.4883 76.8281V84.6914ZM51.1797 84.6914V76.8281H44.7461V84.6914H51.1797ZM59.9219 87L55.8906 74.5195H58.2227L61.1758 83.9297L63.9297 74.5195H66.2852L69.0391 83.9297L71.9922 74.5195H74.3242L70.293 87H67.8906L65.1016 77.8359L62.3242 87H59.9219Z" fill="white"/>
</g>
<defs>
<filter id="filter0_d_103_2" x="0" y="0" width="106" height="106" filterUnits="userSpaceOnUse" color-interpolation-filters="sRGB">
<feFlood flood-opacity="0" result="BackgroundImageFix"/>
<feColorMatrix in="SourceAlpha" type="matrix" values="0 0 0 0 0 0 0 0 0 0 0 0 0 0 0 0 0 0 127 0" result="hardAlpha"/>
<feOffset dy="4"/>
<feGaussianBlur stdDeviation="2"/>
<feComposite in2="hardAlpha" operator="out"/>
<feColorMatrix type="matrix" values="0 0 0 0 0 0 0 0 0 0 0 0 0 0 0 0 0 0 0.25 0"/>
<feBlend mode="normal" in2="BackgroundImageFix" result="effect1_dropShadow_103_2"/>
<feBlend mode="normal" in="SourceGraphic" in2="effect1_dropShadow_103_2" result="shape"/>
</filter>
<linearGradient id="paint0_linear_103_2" x1="97" y1="105.5" x2="0.999999" y2="-11" gradientUnits="userSpaceOnUse">
<stop stop-color="#1C17FF"/>
<stop offset="1" stop-opacity="0.74"/>
</linearGradient>
</defs>
</svg>
